<?xml version="1.0" encoding="utf-8"?>
<!-- Generator: Adobe Illustrator 17.1.0, SVG Export Plug-In . SVG Version: 6.00 Build 0)  -->
<!DOCTYPE svg PUBLIC "-//W3C//DTD SVG 1.1//EN" "http://www.w3.org/Graphics/SVG/1.1/DTD/svg11.dtd">
<svg version="1.1" id="Layer_1" xmlns="http://www.w3.org/2000/svg" xmlns:xlink="http://www.w3.org/1999/xlink" x="0px" y="0px"
	 viewBox="0 0 387.6 387.6" style="enable-background:new 0 0 387.6 387.6;" xml:space="preserve">
<circle style="opacity:0.5;fill:#EA1F27;" cx="193.8" cy="258.4" r="129.2"/>
<circle style="opacity:0.5;fill:#26ABE2;" cx="129.2" cy="129.2" r="129.2"/>
<circle style="opacity:0.5;fill:#39B34A;" cx="258.4" cy="129.2" r="129.2"/>
<path style="fill:#F8EB31;" d="M257.3,145.9c-18.8-10.6-40.4-16.7-63.5-16.7c-23.1,0-44.8,6.1-63.5,16.7
	c5.3,40.7,29.5,75.5,63.5,95.2C227.8,221.4,252.1,186.6,257.3,145.9z"/>
<g>
	<text transform="matrix(1 0 0 1 278.1006 90.4722)"><tspan x="0" y="0" style="font-family:'GillSans-LightItalic'; font-size:21;">Decreased</tspan><tspan x="15.2" y="25.2" style="font-family:'GillSans-LightItalic'; font-size:21;">Cooing</tspan></text>
</g>
<g>
	<text transform="matrix(1 0 0 1 30.1603 90.4724)"><tspan x="0" y="0" style="font-family:'GillSans-LightItalic'; font-size:21;">Increased</tspan><tspan x="4.6" y="25.2" style="font-family:'GillSans-LightItalic'; font-size:21;">Freezing</tspan></text>
</g>
<g>
	<text transform="matrix(1 0 0 1 156.4807 309.1861)"><tspan x="0" y="0" style="font-family:'GillSans-LightItalic'; font-size:21;">Increased</tspan><tspan x="8.4" y="25.2" style="font-family:'GillSans-LightItalic'; font-size:21;">Cortisol</tspan></text>
</g>
<g>
	<line style="fill:#695F5A;" x1="230.4" y1="176.3" x2="235.1" y2="179"/>
</g>
<text transform="matrix(1 0 0 1 160.3652 193.9676)" style="font-family:'GillSans-SemiBold'; font-size:48;">AT</text>
</svg>
